<svg width="700" height="700" viewBox="0 0 700 700" fill="none" xmlns="http://www.w3.org/2000/svg">
<path d="M409.792 175C438.282 180.558 464.462 194.491 484.986 215.015C505.511 235.539 519.444 261.72 525 290.208M409.792 58.3334C468.98 64.9087 524.172 91.4133 566.309 133.496C608.443 175.579 635.02 230.738 641.667 289.917M539.583 612.5C289.905 612.5 87.5 410.095 87.5 160.417C87.5 149.152 87.9121 137.983 88.7218 126.925C89.651 114.235 90.1157 107.89 93.4413 102.113C96.1958 97.3295 101.077 92.7926 106.049 90.3948C112.053 87.5 119.055 87.5 133.059 87.5H215.23C227.006 87.5 232.895 87.5 237.942 89.4382C242.401 91.1502 246.371 93.931 249.504 97.5363C253.05 101.618 255.062 107.151 259.087 118.219L293.099 211.751C297.78 224.628 300.122 231.066 299.725 237.175C299.375 242.561 297.535 247.744 294.414 252.148C290.875 257.142 285.001 260.666 273.252 267.716L233.333 291.667C268.389 368.926 331.045 431.664 408.333 466.667L432.285 426.749C439.335 414.998 442.858 409.124 447.851 405.586C452.255 402.465 457.438 400.625 462.825 400.275C468.933 399.878 475.373 402.22 488.25 406.901L581.782 440.912C592.847 444.937 598.383 446.95 602.464 450.497C606.069 453.629 608.851 457.599 610.56 462.058C612.5 467.104 612.5 472.993 612.5 484.77V566.942C612.5 580.945 612.5 587.948 609.604 593.95C607.206 598.923 602.671 603.805 597.887 606.559C592.11 609.884 585.766 610.347 573.075 611.278C562.015 612.089 550.847 612.5 539.583 612.5Z" stroke="white" stroke-width="66.6667" stroke-linecap="round" stroke-linejoin="round"/>
</svg>
