<svg width="400" height="400" viewBox="0 0 400 400" fill="none" xmlns="http://www.w3.org/2000/svg">
<g clip-path="url(#clip0_36_5)">
<path d="M320 73.3333L48.3332 178.333C29.9999 185 29.9999 196.667 44.9999 200L113.333 221.667L140 301.667C143.333 310 141.667 313.333 150 313.333C156.667 313.333 160 310 163.333 306.667C165 305 180 290 196.667 273.333L266.667 325C280 331.667 288.333 328.333 291.667 313.333L338.333 95C343.333 76.6667 331.667 66.6667 320 73.3333ZM285 123.333L155 241.667L150 296.667L123.333 216.667L276.667 120C283.333 115 290 118.333 285 123.333Z" fill="white"/>
</g>
<defs>
<clipPath id="clip0_36_5">
<rect width="400" height="400" fill="white"/>
</clipPath>
</defs>
</svg>
