<svg width="400" height="400" viewBox="0 0 400 400" fill="none" xmlns="http://www.w3.org/2000/svg">
<g clip-path="url(#clip0_36_2)">
<path fill-rule="evenodd" clip-rule="evenodd" d="M344.257 230.748C357.525 243.702 371.53 255.89 383.43 270.151C388.687 276.488 393.664 283.028 397.471 290.382C402.866 300.837 397.98 312.342 388.606 312.966L330.332 312.94C315.303 314.187 303.313 308.136 293.232 297.86C285.164 289.643 277.692 280.896 269.934 272.401C266.754 268.929 263.425 265.662 259.448 263.079C251.493 257.916 244.588 259.497 240.042 267.793C235.412 276.232 234.362 285.576 233.907 294.981C233.283 308.703 229.135 312.31 215.351 312.939C185.894 314.328 157.938 309.871 131.967 295.011C109.071 281.911 91.3155 263.417 75.8614 242.48C45.772 201.711 22.7296 156.913 2.01989 110.86C-2.64169 100.484 0.767427 94.9139 12.2157 94.7168C31.2261 94.3475 50.2339 94.3738 69.2666 94.6905C76.993 94.8035 82.108 99.2351 85.0913 106.534C95.3765 131.824 107.962 155.885 123.759 178.188C127.965 184.125 132.255 190.063 138.364 194.242C145.121 198.87 150.267 197.336 153.446 189.808C155.463 185.035 156.346 179.894 156.801 174.781C158.307 157.193 158.506 139.635 155.864 122.108C154.242 111.17 148.081 104.089 137.166 102.019C131.597 100.963 132.426 98.8908 135.123 95.7117C139.807 90.2287 144.212 86.8156 152.994 86.8156H218.851C229.219 88.8619 231.522 93.5195 232.941 103.952L232.998 177.106C232.885 181.145 235.015 193.129 242.289 195.802C248.111 197.705 251.949 193.048 255.442 189.356C271.21 172.621 282.464 152.843 292.518 132.363C296.98 123.358 300.816 114.006 304.534 104.662C307.289 97.7277 311.611 94.3159 319.422 94.4671L382.806 94.5236C384.685 94.5236 386.587 94.5512 388.407 94.8627C399.088 96.6829 402.015 101.277 398.716 111.707C393.518 128.071 383.405 141.707 373.517 155.407C362.946 170.033 351.641 184.158 341.159 198.871C331.528 212.306 332.293 219.079 344.257 230.748Z" fill="white"/>
</g>
<defs>
<clipPath id="clip0_36_2">
<rect width="400" height="400" fill="white"/>
</clipPath>
</defs>
</svg>
